<?xml version="1.0" encoding="UTF-8"?>
<svg id="Layer_2" data-name="Layer 2" xmlns="http://www.w3.org/2000/svg" viewBox="0 0 1000 1000">
  <defs>
    <style>
      .cls-1 {
        fill: #0a2a4e;
      }

      .cls-1, .cls-2 {
        stroke-width: 0px;
      }

      .cls-3 {
        fill: none;
        stroke: #0a2a4e;
        stroke-miterlimit: 10;
        stroke-width: 30px;
      }

      .cls-2 {
        fill: #fff;
      }
    </style>
  </defs>
  <rect class="cls-2" x=".62" y="-1.18" width="998.75" height="1001.39"/>
  <path class="cls-3" d="M226.99,299.52c.09-3.49,3.12-6.16,6.59-5.82,30.43,2.95,81.73,3.71,140.48-16.2,56.97-19.31,96.34-49.73,118.51-69.93,2.29-2.09,5.77-2.11,8.08-.04,22.72,20.28,62.97,50.75,120.94,69.97,58.01,19.24,108.57,18.86,139.09,16.13,3.43-.31,6.36,2.26,6.53,5.69,3.06,62.45,4.17,273.59-148.14,423.72-39.62,39.05-81.68,66.15-119.69,85.15-1.75.87-3.81.84-5.53-.09-36.64-19.83-76.54-47.15-114.29-85.06-149.71-150.35-154.37-355.65-152.57-423.51Z"/>
  <g>
    <circle class="cls-2" cx="747.05" cy="577.12" r="72"/>
    <circle class="cls-2" cx="271.05" cy="577.12" r="72"/>
    <path class="cls-2" d="M883.33,607.21c-11.39,0-21.93-5.84-30.48-16.88-10.74-13.86-11.56-28.37-10.58-39.15.1-1.16-.66-2.2-1.8-2.44-8.9-1.91-19.83-5.8-30.55-15.2-6.86-6.01-12.51-13.34-16.81-21.78-.28-.55-.76-.96-1.35-1.14-2.82-.85-5.73-1.72-8.75-2.59-.14-.04-.29-.07-.44-.09-40.8-4.32-81.71-6.42-124.95-6.42-31.19,0-58.33,1.06-82.28,2-12.31.48-23.93.94-34.33,1.17-3.74.08-11.9.51-22.22,1.05-22.67,1.19-58,3.04-93.06,3.64-1.58.03-2.68,1.58-2.16,3.07.33.95.65,1.9.96,2.86.36,1.1-.16,2.3-1.2,2.81l-49.7,24.3c-1.03.5-2.25.18-2.92-.75-8.66-12.09-19.24-22.22-31.48-30.13-20.95-13.54-40.92-16.63-54.52-18.52-.12-.02-.22-.02-.34-.02-3.96.09-16.03.67-44.01,2l-22.43,1.06c-9.19.44-21.26,1.01-26.67,2.43-.59.16-1.08.55-1.38,1.08-1.25,2.26-3.09,5.75-5.01,9.37l-.36.68c-2.54,4.81-5.14,9.76-6.37,12.49-.17.38-.24.8-.18,1.21.29,2.05,1.01,6.09,2.85,13.18,3.01,11.57,5.59,18.32,7.13,22.36.68,1.77,1.21,3.17,1.7,4.74,4.61,14.78-1.51,29.88-14.88,36.72l-5.94,3.04c-.33.17-.69.26-1.06.26l-6.76.02c-13.57,0-23.56-7.42-36.83-27.4-11.35-17.08-28.43-50.42-15.26-81.79.99-2.36,2.04-4.43,3.05-6.43,1.6-3.16,3.26-6.43,5.18-11.96,2.45-7.03,3.91-11.44,3.6-13.6-.08-.54-.08-.55-.89-2.13-6.15-12.08-6.37-23.46-.64-33.83,3.79-6.83,13.19-18.2,33.86-18.2,8.36,0,17.06,1.79,25.47,3.52,3.23.66,6.29,1.29,8.7,1.68,3.1.49,6.09.73,9.12.73,14.45,0,27.97-5.65,45.09-12.8,3.73-1.56,7.59-3.17,11.6-4.78,80.26-32.16,164.12-39.1,167.65-39.38,17.17-1.37,34.94-2.8,53.9-2.8,32,0,60.13,4.12,88.52,12.97,38.84,12.11,68.25,29.84,89.73,42.78,7.63,4.6,17.09,10.3,20.54,11.49.07.02.13.04.2.06,4.28,1.02,17.06,1.85,28.36,2.57,25.52,1.64,60.47,3.9,96.32,12.2l.52.12c20.33,5.09,49.68,14.03,73.99,27.71,28.59,16.08,43.42,35.31,44.08,57.13.18,5.88-.77,10.68-1.53,14.54-.75,3.81-1.46,7.41-1.35,14.12.07,4.21.45,8.31.79,11.92.39,4.17.76,8.1.64,12.03-.61,20.98-15.34,28.75-19.84,30.64-3.94,1.64-8.04,2.45-12.25,2.45h0Z"/>
    <path class="cls-1" d="M886.9,522.42c-.67-22.28-44.34-43.86-95.37-56.64-54.16-12.55-107.83-10.4-125.67-15.02-17.83-4.63-54.74-36.93-111.63-54.67-49.5-15.43-91-12.12-131.12-8.91-5.17.41-83.59,7.16-158.86,37.32-27.45,11-50.62,23.56-81.69,18.62-13.38-2.13-33.58-8.36-37.05-2.11-1.9,3.44,3.4,6.42,4.96,17.18,1.35,9.37-1.26,17.13-4.96,27.74-3.8,10.92-7.1,15.83-8.91,20.15-11.66,27.77,22.57,68.54,24.51,67.55.82-.42-3.79-8.29-9.32-29.57-4.77-18.37-4.19-23.49-3.63-26.42.97-5.2,3.95-10.84,9.9-22.13,4.74-8.97,7.1-13.46,8.92-15.86,8.83-11.62,25.74-12.41,49.54-13.54q68.64-3.25,71.01-2.97c16.07,2.22,41.3,5.97,68,23.22,10.58,6.84,19.15,14.35,25.96,21.46,2.9,3.03,7.81-.39,5.93-4.14-.48-.95-.97-1.92-1.48-2.89-1.91-3.64-3.87-7.02-5.83-10.16-3.09-4.94.48-11.32,6.31-11.21,60.12,1.17,137.44-4.36,153.94-4.72,51.62-1.13,132.55-7.97,239.53,2.8,5.8.58,11.55,1.71,17.13,3.37,11.94,3.55,22.43,6.97,31.58,10.33,4.1,1.51,2.62,7.63-1.72,7.07h0c-3.19-.41-5.32,3.18-3.44,5.78,1.63,2.27,3.69,4.66,6.27,6.93,16.41,14.4,33.56,5.54,41.58,16.39,8.76,11.84-6.36,29.56,5.29,44.59,1.92,2.48,5.41,5.96,7.43,5.12,3.13-1.31.23-11.93,0-26.43-.26-16.26,3.08-21.87,2.89-28.24ZM350.95,447.78c-7.94-2.45-14.04-5.66-18.52-8.66-4.97-3.33-3.93-10.92,1.75-12.78,19.34-6.36,56.1-17.98,60.69-16.04,4.71,1.98,9.97,24.22,12.31,35.21.66,3.1-1.76,6-4.93,5.91-13.22-.37-43.73-1.46-51.3-3.64ZM606.77,458.84c-2.44-.17-4.61-1.54-5.83-3.66-3.83-6.62-10.17-14.36-17.99-17.48-9.08-3.63-22.95.49-24.77,5.12-.68,1.73-.34,4.06.35,6.29,1.1,3.57-1.59,7.17-5.33,7.1-30.02-.52-128.32-2.41-131.26-4.64-2.53-1.93-9.14-24.56-12.5-36.56-1.12-4,1.46-8.09,5.56-8.8,21.25-3.68,82.83-12,129.31,5.07,30.43,11.17,59.6,28.7,75.29,38.87,3.95,2.56,2.23,8.68-2.47,8.81-3.61.09-7.32.09-10.36-.12Z"/>
    <path class="cls-1" d="M674.87,581.14c-6.25-20.76-.58-44.49,12.8-61.77,25.63-34.03,74.95-39.9,107.51-12.12,21.18,17.33,32.56,47.53,24.79,73.89,0,0-.49-.04-.49-.04-1.17-10.02-3.63-19.69-7.91-28.64-21.01-44.62-76.04-58.69-112.15-22.85-10.02,9.76-17.54,22.76-21.29,36.55-1.32,4.79-2.24,9.77-2.87,14.94l-.37.03h0Z"/>
    <path class="cls-2" d="M171.52,583.58c-1.29.12-2.45-.85-2.54-2.14-1.88-28.25,7.82-56.44,26.81-77.66,19.02-21.26,45.73-33.8,73.27-34.41,28.35-.64,56.15,11.32,76.25,32.78,20.06,21.42,30.36,50.18,28.46,79.25-.08,1.3-1.24,2.26-2.53,2.15l-55.16-4.85c-1.24-.11-2.17-1.17-2.12-2.41.5-12.29-3.87-23.98-12.45-33.13-8.45-9.03-19.79-14.09-31.13-13.81-11,.24-21.9,5.5-29.88,14.43-8.11,9.06-12.23,20.52-11.72,32.47.05,1.24-.88,2.3-2.12,2.41l-55.15,4.93Z"/>
    <path class="cls-1" d="M198.87,581.14c-6.56-20.78-.95-44.69,12.39-62.12,30.35-40.17,89.68-39.9,120.04.1,13.38,17.37,19.06,41.23,12.66,62.03,0,0-.49-.04-.49-.04-2.25-19.18-10.65-37.98-24.56-51.13-36.13-35.15-89.88-21.8-111.4,22.59-2.11,4.3-3.83,8.86-5.22,13.63-1.37,4.77-2.35,9.74-3.06,14.92l-.37.03h0Z"/>
    <path class="cls-1" d="M343.71,581.12h331.34s-277.21-16.26-295.6-11.09c-10.31,2.9-35.74,11.09-35.74,11.09Z"/>
  </g>
</svg>